<?xml version='1.0' encoding='UTF-8' standalone='no'?>
<svg height="594mm" xmlns:svg="http://www.w3.org/2000/svg" xmlns:xlink="http://www.w3.org/1999/xlink" xmlns:dc="http://purl.org/dc/elements/1.1/" width="841mm" viewBox="0 0 8410 5940" version="1.2" xmlns:freecad="http://www.freecadweb.org/wiki/index.php?title=Svg_Namespace" xmlns="http://www.w3.org/2000/svg" baseProfile="tiny" xmlns:cc="http://creativecommons.org/ns#" xmlns:rdf="http://www.w3.org/1999/02/22-rdf-syntax-ns#">
 <title>FreeCAD SVG Export</title>
 <desc>Drawing page: Page exported from FreeCAD document: Nae_Nae_Case_V1</desc>
 <defs/>
 <g id="Page">
  <g transform="scale(10.000000, 10.000000)" id="A1_Landscape_ISO7200_Pep.svg" style="stroke: none;">
   <g id="orientation-border" style="fill:none;stroke:#000000;stroke-width:0.20;stroke-linecap:miter;stroke-miterlimit:4">
    <rect height="574" x="20" width="811" y="10"/>
    <!-- orientation separators top -->
    <path d="m 83,10 v 4"/>
    <path d="m 140,10 v 4"/>
    <path d="m 197,10 v 4"/>
    <path d="m 254,10 v 4"/>
    <path d="m 311,10 v 4"/>
    <path d="m 368,10 v 4"/>
    <path d="m 425,10 v 4"/>
    <path d="m 482,10 v 4"/>
    <path d="m 539,10 v 4"/>
    <path d="m 596,10 v 4"/>
    <path d="m 653,10 v 4"/>
    <path d="m 710,10 v 4"/>
    <path d="m 767,10 v 4"/>
    <!-- orientation separators left -->
    <path d="m 20,69 h 4"/>
    <path d="m 20,126 h 4"/>
    <path d="m 20,183 h 4"/>
    <path d="m 20,240 h 4"/>
    <path d="m 20,297 h 4"/>
    <path d="m 20,354 h 4"/>
    <path d="m 20,411 h 4"/>
    <path d="m 20,468 h 4"/>
    <path d="m 20,525 h 4"/>
    <!-- orientation separators right -->
    <path d="m 827,69 h 4"/>
    <path d="m 827,126 h 4"/>
    <path d="m 827,183 h 4"/>
    <path d="m 827,240 h 4"/>
    <path d="m 827,297 h 4"/>
    <path d="m 827,354 h 4"/>
    <path d="m 827,411 h 4"/>
    <path d="m 827,468 h 4"/>
    <path d="m 827,525 h 4"/>
    <!-- orientation separators bottom -->
    <path d="m 83,580 v 4"/>
    <path d="m 140,580 v 4"/>
    <path d="m 197,580 v 4"/>
    <path d="m 254,580 v 4"/>
    <path d="m 311,580 v 4"/>
    <path d="m 368,580 v 4"/>
    <path d="m 425,580 v 4"/>
    <path d="m 482,580 v 4"/>
    <path d="m 539,580 v 4"/>
    <path d="m 596,580 v 4"/>
    <path d="m 653,580 v 4"/>
    <path d="m 710,580 v 4"/>
    <path d="m 767,580 v 4"/>
   </g>
   <g id="orientation-text" style="font-size:3px;text-anchor:start;fill:#000000;font-family:tahoma">
    <!-- orientation char top -->
    <text x="54" y="13">1</text>
    <text x="111" y="13">2</text>
    <text x="168" y="13">3</text>
    <text x="225" y="13">4</text>
    <text x="282" y="13">5</text>
    <text x="339" y="13">6</text>
    <text x="396" y="13">7</text>
    <text x="453" y="13">8</text>
    <text x="510" y="13">9</text>
    <text x="566" y="13">10</text>
    <text x="623" y="13">11</text>
    <text x="680" y="13">12</text>
    <text x="737" y="13">13</text>
    <text x="794" y="13">14</text>
    <!-- orientation char left -->
    <text x="21" y="42">A</text>
    <text x="21" y="99">B</text>
    <text x="21" y="156">C</text>
    <text x="21" y="213">D</text>
    <text x="21" y="270">E</text>
    <text x="21" y="327">F</text>
    <text x="21" y="384">G</text>
    <text x="21" y="441">H</text>
    <text x="21" y="498">I</text>
    <text x="21" y="555">K</text>
    <!-- orientation char right -->
    <text x="828" y="42">A</text>
    <text x="828" y="99">B</text>
    <text x="828" y="156">C</text>
    <text x="828" y="213">D</text>
    <text x="828" y="270">E</text>
    <text x="828" y="327">F</text>
    <text x="828" y="384">G</text>
    <text x="828" y="441">H</text>
    <text x="828" y="498">I</text>
    <text x="828" y="555">K</text>
    <!-- orientation char bottom -->
    <text x="54" y="583">1</text>
    <text x="111" y="583">2</text>
    <text x="168" y="583">3</text>
    <text x="225" y="583">4</text>
    <text x="282" y="583">5</text>
    <text x="339" y="583">6</text>
    <text x="396" y="583">7</text>
    <text x="453" y="583">8</text>
    <text x="510" y="583">9</text>
    <text x="566" y="583">10</text>
    <text x="623" y="583">11</text>
    <text x="680" y="583">12</text>
    <text x="737" y="583">13</text>
    <text x="794" y="583">14</text>
   </g>
   <g id="drawing-border" style="fill:none;stroke:#000000;stroke-width:0.35;stroke-linecap:miter;stroke-miterlimit:4">
    <rect height="566" x="24" width="803" y="14"/>
   </g>
   <g id="titleblock-structure" style="fill:none;stroke:#000000;stroke-width:0.35;stroke-linecap:miter;stroke-miterlimit:4">
    <rect height="34" x="687" width="140" y="546"/>
    <path d="m 687,554 h 140"/>
    <!-- upper horizontal Separator Titleblock -->
    <path d="m 687,572 h 87"/>
    <!-- lower horizontal Separator Document-Type -->
    <path d="m 687,576 h 140"/>
    <!-- lower horizontal Separator Copyright -->
    <path d="m 732,546 v 8"/>
    <!-- Separator Author / Owner -->
    <path d="m 774,546 v 30"/>
    <!-- Separator Title / Liste RH -->
    <path d="m 804,546 v 8"/>
    <!-- Separator Scale / Sheet -->
    <path d="m 774,562 h 53"/>
    <!-- Separator Part / Drawing-Nr -->
    <path d="m 774,568 h 53"/>
    <!-- Separator DRW-Info / Revision -->
    <path d="m 804,568 v 8"/>
    <!-- Separator Date / Revision -->
   </g>
   <g id="titleblock-text-non-editable" style="font-size:3px;text-anchor:start;fill:#000000;font-family:tahoma">
    <text x="688" y="549">Author:</text>
    <text x="688" y="553">Appr.:</text>
    <text x="733" y="549">Legal owner:</text>
    <text x="688" y="558">TITLE:</text>
    <text x="688" y="575">Document type:</text>
    <text x="805" y="549">Sheet:</text>
    <text x="805" y="553">Size:</text>
    <text x="775" y="549">Scale:</text>
    <text x="775" y="553">Toler.:</text>
    <text x="775" y="557">Part material:</text>
    <text x="775" y="561">Part number:</text>
    <text x="775" y="566">Drawing no.:</text>
    <text x="775" y="571">Date:</text>
    <text x="805" y="571">Revision:</text>
   </g>
   <g id="titleblock-text-editable" style="font-size:3px;text-anchor:start;fill:#000000;font-family:tahoma">
    <text x="699" freecad:editable="AUTHOR_NAME" y="549">
     <tspan xml:space="preserve">github.com/75h7</tspan>
    </text>
    <text x="699" freecad:editable="APPROVER_NAME" y="553">
     <tspan xml:space="preserve">APPROVER NAME</tspan>
    </text>
    <text x="734" freecad:editable="OWNER_NAME" y="553">
     <tspan xml:space="preserve">OWNER NAME</tspan>
    </text>
    <text x="689" freecad:editable="TITLELINE-1" y="562">
     <tspan xml:space="preserve">Nae Nae Case V1</tspan>
    </text>
    <text x="689" freecad:editable="TITLELINE-2" y="566">
     <tspan xml:space="preserve">Front and top/bottom panels</tspan>
    </text>
    <text x="689" freecad:editable="TITLELINE-3" y="570">
     <tspan xml:space="preserve"/>
    </text>
    <text x="711" freecad:editable="DOCUMENT_TYPE" y="575">
     <tspan xml:space="preserve">Mechanical assembly drawing</tspan>
    </text>
    <text x="814" freecad:editable="SHEET" y="549">
     <tspan xml:space="preserve">1 of 3</tspan>
    </text>
    <text x="784" freecad:editable="SCALE" y="549">
     <tspan xml:space="preserve">mm 1:1</tspan>
    </text>
    <text x="784" freecad:editable="TOLERANCE" y="553">
     <tspan xml:space="preserve">bruh it's cardboard</tspan>
    </text>
    <text x="794" freecad:editable="PM" y="557">
     <tspan xml:space="preserve">cardboard</tspan>
    </text>
    <text x="794" freecad:editable="PN" y="561">
     <tspan xml:space="preserve">PN</tspan>
    </text>
    <text x="794" freecad:editable="DN" y="566">
     <tspan xml:space="preserve">DN</tspan>
    </text>
    <text x="776" freecad:editable="DATE" y="575">
     <tspan xml:space="preserve">2022-03-02</tspan>
    </text>
    <text x="806" freecad:editable="REVISION" y="575">
     <tspan xml:space="preserve">REV A</tspan>
    </text>
    <text x="814" freecad:editable="SIZE" y="553">
     <tspan xml:space="preserve">A1</tspan>
    </text>
    <text x="688" freecad:editable="RIGHTS" y="579">
     <tspan xml:space="preserve">https://creativecommons.org/licenses/by-nc/4.0/                                                                       sus ඞ</tspan>
    </text>
   </g>
   <!-- Set display:none to hide FreeCAD Logo or remove this and next 4 lines from this code -->
   <g stroke-width="0.35" transform="translate(675,569)" id="freecad-logo" stroke="#000" style="display:inline" fill="none" fill-rule="evenodd">
    <path d="m0.1524 0.15254v8.8549h1.9744v-3.4652h1.396v-1.3661h-1.396v-1.4745h3.4391v-2.5441l-5.4135-0.005z"/>
    <path d="m7.7927 3.4504-0.50715-0.176-0.48387-1.2366-0.76115 0.04-0.34718 1.2787-0.4859 0.23269-1.2119-0.53015-0.51188 0.56882 0.65892 1.1485-0.18006 0.50567-1.2366 0.48387 0.044064 0.76263 1.2787 0.34718 0.23269 0.4859-0.53421 1.2104 0.56882 0.51188 1.1485-0.65891 0.50973 0.18155 0.4798 1.2351 0.7667-0.04258 0.34311-1.2802 0.4859-0.23269 1.2145 0.5357 0.51188-0.56882-0.65891-1.1485 0.17748-0.51122 1.2351-0.4798-0.03851-0.76521-1.2802-0.34311-0.23269-0.4859 0.53163-1.216-0.56881-0.51184zm-0.5715 1.2244 0.23576 0.13679 0.20426 0.18519 0.16353 0.22101 0.11763 0.24572 0.06916 0.26489 0.01146 0.27146-0.03921 0.27139-0.08948 0.25764-0.14234 0.23834-0.17964 0.20167-0.22101 0.16353-0.24572 0.11763-0.26489 0.06916-0.27295 0.01553-0.2719-0.04-0.2576-0.089-0.2383-0.143-0.2002-0.183-0.165-0.217-0.1177-0.246-0.0676-0.269-0.0156-0.273 0.039206-0.2714 0.089484-0.25764 0.14085-0.23427 0.18113-0.20574 0.22101-0.16352 0.24572-0.11763 0.26895-0.06768 0.27147-0.01146 0.27139 0.03921 0.25764 0.08948z"/>
   </g>
  </g>
  <g stroke-width="1" id="DrawingContent" stroke="black" fill="none" fill-rule="evenodd" stroke-linecap="square" stroke-linejoin="bevel">
   <g transform="matrix(1,0,0,1,2474.3,2474.9)" stroke="none" font-weight="400" fill="#ffffff" fill-opacity="1" font-size="29.1042" font-style="normal" font-family="MS Shell Dlg 2">
    <path vector-effect="non-scaling-stroke" fill-rule="evenodd" d="M1500,2000 L1500,0 L1500,-2000 L-1500,-2000 L-1500,0 L-1500,2000 L1500,2000"/>
   </g>
   <g stroke-width="1" transform="matrix(1,0,0,1,2474.3,2474.9)" stroke="#000000" stroke-opacity="1" font-weight="400" fill="none" stroke-linecap="square" font-size="29.1042" font-style="normal" font-family="MS Shell Dlg 2" stroke-linejoin="bevel">
    <rect height="0" x="0" width="0" y="0"/>
   </g>
   <g transform="matrix(1,0,0,1,2474.3,2474.9)" stroke="none" font-weight="400" fill="#ffffff" fill-opacity="1" font-size="29.1042" font-style="normal" font-family="MS Shell Dlg 2">
    <path vector-effect="non-scaling-stroke" fill-rule="evenodd" d="M-1500,0 L-1500,2000 L1500,2000 L1500,0 L-1500,0"/>
   </g>
   <g stroke-width="1" transform="matrix(1,0,0,1,2474.3,2474.9)" stroke="#000000" stroke-opacity="1" font-weight="400" fill="none" stroke-linecap="square" font-size="29.1042" font-style="normal" font-family="MS Shell Dlg 2" stroke-linejoin="bevel">
    <rect height="0" x="0" width="0" y="0"/>
   </g>
   <g transform="matrix(1,0,0,1,2474.3,2474.9)" stroke="none" font-weight="400" fill="#ffffff" fill-opacity="1" font-size="29.1042" font-style="normal" font-family="MS Shell Dlg 2">
    <path vector-effect="non-scaling-stroke" fill-rule="evenodd" d="M1500,0 L1500,-2000 L-1500,-2000 L-1500,0 L1500,0"/>
   </g>
   <g stroke-width="1" transform="matrix(1,0,0,1,2474.3,2474.9)" stroke="#000000" stroke-opacity="1" font-weight="400" fill="none" stroke-linecap="square" font-size="29.1042" font-style="normal" font-family="MS Shell Dlg 2" stroke-linejoin="bevel">
    <rect height="0" x="0" width="0" y="0"/>
   </g>
   <g transform="matrix(1,0,0,1,2474.3,2474.9)" stroke="none" font-weight="400" fill="#ffffff" fill-opacity="1" font-size="29.1042" font-style="normal" font-family="MS Shell Dlg 2">
    <path vector-effect="non-scaling-stroke" fill-rule="evenodd" d="M500,700 C500,1031.37 231.371,1300 -100,1300 C-431.371,1300 -700,1031.37 -700,700 C-700,368.629 -431.371,100 -100,100 C231.371,100 500,368.629 500,700 "/>
   </g>
   <g stroke-width="1" transform="matrix(1,0,0,1,2474.3,2474.9)" stroke="#000000" stroke-opacity="1" font-weight="400" fill="none" stroke-linecap="square" font-size="29.1042" font-style="normal" font-family="MS Shell Dlg 2" stroke-linejoin="bevel">
    <rect height="0" x="0" width="0" y="0"/>
   </g>
   <g stroke-width="2.5" transform="matrix(1,0,0,1,2474.3,2474.9)" stroke="#000000" stroke-opacity="1" font-weight="400" fill="none" stroke-linecap="round" font-size="29.1042" font-style="normal" font-family="MS Shell Dlg 2" stroke-linejoin="bevel">
    <path vector-effect="none" fill-rule="evenodd" d="M-1500,2000 L1500,2000"/>
   </g>
   <g stroke-width="2.5" transform="matrix(1,0,0,1,2474.3,2474.9)" stroke="#000000" stroke-opacity="1" font-weight="400" fill="none" stroke-linecap="round" font-size="29.1042" font-style="normal" font-family="MS Shell Dlg 2" stroke-linejoin="bevel">
    <path vector-effect="none" fill-rule="evenodd" d="M1500,2000 L1500,0"/>
   </g>
   <g stroke-width="2.5" transform="matrix(1,0,0,1,2474.3,2474.9)" stroke="#000000" stroke-opacity="1" font-weight="400" fill="none" stroke-linecap="round" font-size="29.1042" font-style="normal" font-family="MS Shell Dlg 2" stroke-linejoin="bevel">
    <path vector-effect="none" fill-rule="evenodd" d="M1500,0 L-1500,0"/>
   </g>
   <g stroke-width="2.5" transform="matrix(1,0,0,1,2474.3,2474.9)" stroke="#000000" stroke-opacity="1" font-weight="400" fill="none" stroke-linecap="round" font-size="29.1042" font-style="normal" font-family="MS Shell Dlg 2" stroke-linejoin="bevel">
    <path vector-effect="none" fill-rule="evenodd" d="M-1500,0 L1500,0"/>
   </g>
   <g stroke-width="2.5" transform="matrix(1,0,0,1,2474.3,2474.9)" stroke="#000000" stroke-opacity="1" font-weight="400" fill="none" stroke-linecap="round" font-size="29.1042" font-style="normal" font-family="MS Shell Dlg 2" stroke-linejoin="bevel">
    <path vector-effect="none" fill-rule="evenodd" d="M1500,0 L1500,-2000"/>
   </g>
   <g stroke-width="2.5" transform="matrix(1,0,0,1,2474.3,2474.9)" stroke="#000000" stroke-opacity="1" font-weight="400" fill="none" stroke-linecap="round" font-size="29.1042" font-style="normal" font-family="MS Shell Dlg 2" stroke-linejoin="bevel">
    <path vector-effect="none" fill-rule="evenodd" d="M1500,-2000 L-1500,-2000"/>
   </g>
   <g stroke-width="2.5" transform="matrix(1,0,0,1,2474.3,2474.9)" stroke="#000000" stroke-opacity="1" font-weight="400" fill="none" stroke-linecap="round" font-size="29.1042" font-style="normal" font-family="MS Shell Dlg 2" stroke-linejoin="bevel">
    <path vector-effect="none" fill-rule="evenodd" d="M-1500,-2000 L-1500,0"/>
   </g>
   <g stroke-width="2.5" transform="matrix(1,0,0,1,2474.3,2474.9)" stroke="#000000" stroke-opacity="1" font-weight="400" fill="none" stroke-linecap="round" font-size="29.1042" font-style="normal" font-family="MS Shell Dlg 2" stroke-linejoin="bevel">
    <path vector-effect="none" fill-rule="evenodd" d="M-1500,0 L-1500,2000"/>
   </g>
   <g stroke-width="2.5" transform="matrix(1,0,0,1,2474.3,2474.9)" stroke="#000000" stroke-opacity="1" font-weight="400" fill="none" stroke-linecap="round" font-size="29.1042" font-style="normal" font-family="MS Shell Dlg 2" stroke-linejoin="bevel">
    <path vector-effect="none" fill-rule="evenodd" d="M500,700 C500,1031.37 231.371,1300 -100,1300 C-431.371,1300 -700,1031.37 -700,700 C-700,368.629 -431.371,100 -100,100 C231.371,100 500,368.629 500,700 "/>
   </g>
   <g stroke-width="1" transform="matrix(1,0,0,1,2474.3,2474.9)" stroke="#000000" stroke-opacity="1" font-weight="400" fill="none" stroke-linecap="square" font-size="29.1042" font-style="normal" font-family="MS Shell Dlg 2" stroke-linejoin="bevel">
    <rect height="0" x="0" width="0" y="0"/>
   </g>
   <g stroke-width="1" transform="matrix(1,0,0,1,2421.8,447.958)" stroke="#000000" stroke-opacity="1" font-weight="400" fill="none" stroke-linecap="square" font-size="29.1042" font-style="normal" font-family="MS Shell Dlg 2" stroke-linejoin="bevel">
    <text stroke="none" x="4" font-weight="400" fill="#000000" fill-opacity="1" xml:space="preserve" font-size="50" y="70" font-style="normal" font-family="osifont">300.0</text>
   </g>
   <g stroke-width="1.3" transform="matrix(1,0,0,1,2474.3,2474.9)" stroke="#000000" stroke-opacity="1" font-weight="400" fill="none" stroke-linecap="round" font-size="29.1042" font-style="normal" font-family="MS Shell Dlg 2" stroke-linejoin="bevel">
    <path vector-effect="none" fill-rule="evenodd" d="M1500,-1946.84 L-1500,-1946.84 M-1500,-2000 L-1500,-1936.44 M1500,-2000 L1500,-1936.44"/>
   </g>
   <g stroke-width="1.3" transform="matrix(1,0,0,1,974.302,528.058)" stroke="#000000" stroke-opacity="1" font-weight="400" fill="#000000" fill-opacity="1" stroke-linecap="round" font-size="29.1042" font-style="normal" font-family="MS Shell Dlg 2" stroke-linejoin="bevel">
    <path vector-effect="none" fill-rule="evenodd" d="M0,0 L50,8.33333 L50,-8.33333 L0,0"/>
   </g>
   <g stroke-width="1.3" transform="matrix(1,0,0,1,3974.3,528.058)" stroke="#000000" stroke-opacity="1" font-weight="400" fill="#000000" fill-opacity="1" stroke-linecap="round" font-size="29.1042" font-style="normal" font-family="MS Shell Dlg 2" stroke-linejoin="bevel">
    <path vector-effect="none" fill-rule="evenodd" d="M0,0 L-50,-8.33333 L-50,8.33333 L0,0"/>
   </g>
   <g stroke-width="1" transform="matrix(1,0,0,1,2474.3,2474.9)" stroke="#000000" stroke-opacity="1" font-weight="400" fill="none" stroke-linecap="square" font-size="29.1042" font-style="normal" font-family="MS Shell Dlg 2" stroke-linejoin="bevel">
    <rect height="0" x="0" width="0" y="0"/>
   </g>
   <g stroke-width="1" transform="matrix(0,-1,1,0,801.838,1531.61)" stroke="#000000" stroke-opacity="1" font-weight="400" fill="none" stroke-linecap="square" font-size="29.1042" font-style="normal" font-family="MS Shell Dlg 2" stroke-linejoin="bevel">
    <text stroke="none" x="4" font-weight="400" fill="#000000" fill-opacity="1" xml:space="preserve" font-size="50" y="70" font-style="normal" font-family="osifont">200.0</text>
   </g>
   <g stroke-width="1.3" transform="matrix(1,0,0,1,2474.3,2474.9)" stroke="#000000" stroke-opacity="1" font-weight="400" fill="none" stroke-linecap="round" font-size="29.1042" font-style="normal" font-family="MS Shell Dlg 2" stroke-linejoin="bevel">
    <path vector-effect="none" fill-rule="evenodd" d="M-1592.36,-2000 L-1592.36,0 M-1500,0 L-1602.76,0 M-1500,-2000 L-1602.76,-2000"/>
   </g>
   <g stroke-width="1.3" transform="matrix(1,0,0,1,881.938,2474.9)" stroke="#000000" stroke-opacity="1" font-weight="400" fill="#000000" fill-opacity="1" stroke-linecap="round" font-size="29.1042" font-style="normal" font-family="MS Shell Dlg 2" stroke-linejoin="bevel">
    <path vector-effect="none" fill-rule="evenodd" d="M0,0 L8.33333,-50 L-8.33333,-50 L0,0"/>
   </g>
   <g stroke-width="1.3" transform="matrix(1,0,0,1,881.938,474.895)" stroke="#000000" stroke-opacity="1" font-weight="400" fill="#000000" fill-opacity="1" stroke-linecap="round" font-size="29.1042" font-style="normal" font-family="MS Shell Dlg 2" stroke-linejoin="bevel">
    <path vector-effect="none" fill-rule="evenodd" d="M0,0 L-8.33333,50 L8.33333,50 L0,0"/>
   </g>
   <g stroke-width="1" transform="matrix(1,0,0,1,2474.3,2474.9)" stroke="#000000" stroke-opacity="1" font-weight="400" fill="none" stroke-linecap="square" font-size="29.1042" font-style="normal" font-family="MS Shell Dlg 2" stroke-linejoin="bevel">
    <rect height="0" x="0" width="0" y="0"/>
   </g>
   <g stroke-width="1" transform="matrix(0,-1,1,0,802.341,3557.39)" stroke="#000000" stroke-opacity="1" font-weight="400" fill="none" stroke-linecap="square" font-size="29.1042" font-style="normal" font-family="MS Shell Dlg 2" stroke-linejoin="bevel">
    <text stroke="none" x="4" font-weight="400" fill="#000000" fill-opacity="1" xml:space="preserve" font-size="50" y="70" font-style="normal" font-family="osifont">200.0</text>
   </g>
   <g stroke-width="1.3" transform="matrix(1,0,0,1,2474.3,2474.9)" stroke="#000000" stroke-opacity="1" font-weight="400" fill="none" stroke-linecap="round" font-size="29.1042" font-style="normal" font-family="MS Shell Dlg 2" stroke-linejoin="bevel">
    <path vector-effect="none" fill-rule="evenodd" d="M-1591.86,0 L-1591.86,2000 M-1500,2000 L-1602.26,2000 M-1500,0 L-1602.26,0"/>
   </g>
   <g stroke-width="1.3" transform="matrix(1,0,0,1,882.441,4474.9)" stroke="#000000" stroke-opacity="1" font-weight="400" fill="#000000" fill-opacity="1" stroke-linecap="round" font-size="29.1042" font-style="normal" font-family="MS Shell Dlg 2" stroke-linejoin="bevel">
    <path vector-effect="none" fill-rule="evenodd" d="M0,0 L8.33333,-50 L-8.33333,-50 L0,0"/>
   </g>
   <g stroke-width="1.3" transform="matrix(1,0,0,1,882.441,2474.9)" stroke="#000000" stroke-opacity="1" font-weight="400" fill="#000000" fill-opacity="1" stroke-linecap="round" font-size="29.1042" font-style="normal" font-family="MS Shell Dlg 2" stroke-linejoin="bevel">
    <path vector-effect="none" fill-rule="evenodd" d="M0,0 L-8.33333,50 L8.33333,50 L0,0"/>
   </g>
   <g stroke-width="1" transform="matrix(1,0,0,1,2474.3,2474.9)" stroke="#000000" stroke-opacity="1" font-weight="400" fill="none" stroke-linecap="square" font-size="29.1042" font-style="normal" font-family="MS Shell Dlg 2" stroke-linejoin="bevel">
    <rect height="0" x="0" width="0" y="0"/>
   </g>
   <g stroke-width="1" transform="matrix(0.850875,-0.525369,0.525369,0.850875,3110.62,2625.53)" stroke="#000000" stroke-opacity="1" font-weight="400" fill="none" stroke-linecap="square" font-size="29.1042" font-style="normal" font-family="MS Shell Dlg 2" stroke-linejoin="bevel">
    <text stroke="none" x="4" font-weight="400" fill="#000000" fill-opacity="1" xml:space="preserve" font-size="50" y="70" font-style="normal" font-family="osifont">⌀120.0</text>
   </g>
   <g stroke-width="1.3" transform="matrix(1,0,0,1,2474.3,2474.9)" stroke="#000000" stroke-opacity="1" font-weight="400" fill="none" stroke-linecap="round" font-size="29.1042" font-style="normal" font-family="MS Shell Dlg 2" stroke-linejoin="bevel">
    <path vector-effect="none" fill-rule="evenodd" d="M-695.612,1067.76 L793.786,148.136"/>
   </g>
   <g stroke-width="1.3" transform="matrix(1,0,0,1,2884.83,2859.67)" stroke="#000000" stroke-opacity="1" font-weight="400" fill="#000000" fill-opacity="1" stroke-linecap="round" font-size="29.1042" font-style="normal" font-family="MS Shell Dlg 2" stroke-linejoin="bevel">
    <path vector-effect="none" fill-rule="evenodd" d="M0,0 L46.9218,-19.1778 L38.1657,-33.3591 L0,0"/>
   </g>
   <g stroke-width="1.3" transform="matrix(1,0,0,1,1863.78,3490.12)" stroke="#000000" stroke-opacity="1" font-weight="400" fill="#000000" fill-opacity="1" stroke-linecap="round" font-size="29.1042" font-style="normal" font-family="MS Shell Dlg 2" stroke-linejoin="bevel">
    <path vector-effect="none" fill-rule="evenodd" d="M0,0 L-46.9218,19.1778 L-38.1657,33.3591 L0,0"/>
   </g>
   <g stroke-width="1" transform="matrix(1,0,0,1,2474.3,2474.9)" stroke="#000000" stroke-opacity="1" font-weight="400" fill="none" stroke-linecap="square" font-size="29.1042" font-style="normal" font-family="MS Shell Dlg 2" stroke-linejoin="bevel">
    <rect height="0" x="0" width="0" y="0"/>
   </g>
   <g stroke-width="1" transform="matrix(0,-1,1,0,3085.66,3810.89)" stroke="#000000" stroke-opacity="1" font-weight="400" fill="none" stroke-linecap="square" font-size="29.1042" font-style="normal" font-family="MS Shell Dlg 2" stroke-linejoin="bevel">
    <text stroke="none" x="4" font-weight="400" fill="#000000" fill-opacity="1" xml:space="preserve" font-size="50" y="70" font-style="normal" font-family="osifont">130.0</text>
   </g>
   <g stroke-width="1.3" transform="matrix(1,0,0,1,2474.3,2474.9)" stroke="#000000" stroke-opacity="1" font-weight="400" fill="none" stroke-linecap="round" font-size="29.1042" font-style="normal" font-family="MS Shell Dlg 2" stroke-linejoin="bevel">
    <path vector-effect="none" fill-rule="evenodd" d="M691.459,700 L691.459,2000 M-1500,2000 L701.859,2000 M-100,700 L701.859,700"/>
   </g>
   <g stroke-width="1.3" transform="matrix(1,0,0,1,3165.76,4474.9)" stroke="#000000" stroke-opacity="1" font-weight="400" fill="#000000" fill-opacity="1" stroke-linecap="round" font-size="29.1042" font-style="normal" font-family="MS Shell Dlg 2" stroke-linejoin="bevel">
    <path vector-effect="none" fill-rule="evenodd" d="M0,0 L8.33333,-50 L-8.33333,-50 L0,0"/>
   </g>
   <g stroke-width="1.3" transform="matrix(1,0,0,1,3165.76,3174.9)" stroke="#000000" stroke-opacity="1" font-weight="400" fill="#000000" fill-opacity="1" stroke-linecap="round" font-size="29.1042" font-style="normal" font-family="MS Shell Dlg 2" stroke-linejoin="bevel">
    <path vector-effect="none" fill-rule="evenodd" d="M0,0 L-8.33333,50 L8.33333,50 L0,0"/>
   </g>
   <g stroke-width="1" transform="matrix(1,0,0,1,2474.3,2474.9)" stroke="#000000" stroke-opacity="1" font-weight="400" fill="none" stroke-linecap="square" font-size="29.1042" font-style="normal" font-family="MS Shell Dlg 2" stroke-linejoin="bevel">
    <rect height="0" x="0" width="0" y="0"/>
   </g>
   <g stroke-width="1" transform="matrix(1,0,0,1,1606.05,3863.61)" stroke="#000000" stroke-opacity="1" font-weight="400" fill="none" stroke-linecap="square" font-size="29.1042" font-style="normal" font-family="MS Shell Dlg 2" stroke-linejoin="bevel">
    <text stroke="none" x="4" font-weight="400" fill="#000000" fill-opacity="1" xml:space="preserve" font-size="50" y="70" font-style="normal" font-family="osifont">140.0</text>
   </g>
   <g stroke-width="1.3" transform="matrix(1,0,0,1,2474.3,2474.9)" stroke="#000000" stroke-opacity="1" font-weight="400" fill="none" stroke-linecap="round" font-size="29.1042" font-style="normal" font-family="MS Shell Dlg 2" stroke-linejoin="bevel">
    <path vector-effect="none" fill-rule="evenodd" d="M-100,1468.81 L-1500,1468.81 M-1500,2000 L-1500,1458.41 M-100,700 L-100,1479.21"/>
   </g>
   <g stroke-width="1.3" transform="matrix(1,0,0,1,974.302,3943.71)" stroke="#000000" stroke-opacity="1" font-weight="400" fill="#000000" fill-opacity="1" stroke-linecap="round" font-size="29.1042" font-style="normal" font-family="MS Shell Dlg 2" stroke-linejoin="bevel">
    <path vector-effect="none" fill-rule="evenodd" d="M0,0 L50,8.33333 L50,-8.33333 L0,0"/>
   </g>
   <g stroke-width="1.3" transform="matrix(1,0,0,1,2374.3,3943.71)" stroke="#000000" stroke-opacity="1" font-weight="400" fill="#000000" fill-opacity="1" stroke-linecap="round" font-size="29.1042" font-style="normal" font-family="MS Shell Dlg 2" stroke-linejoin="bevel">
    <path vector-effect="none" fill-rule="evenodd" d="M0,0 L-50,-8.33333 L-50,8.33333 L0,0"/>
   </g>
   <g transform="matrix(1,0,0,1,5871.21,3329.38)" stroke="none" font-weight="400" fill="#ffffff" fill-opacity="1" font-size="29.1042" font-style="normal" font-family="MS Shell Dlg 2">
    <path vector-effect="non-scaling-stroke" fill-rule="evenodd" d="M1500,0 L1500,2000 L-1500,2000 L-1500,0 L-1500,-2000 L1500,-2000 L1500,0"/>
   </g>
   <g stroke-width="1" transform="matrix(1,0,0,1,5871.21,3329.38)" stroke="#000000" stroke-opacity="1" font-weight="400" fill="none" stroke-linecap="square" font-size="29.1042" font-style="normal" font-family="MS Shell Dlg 2" stroke-linejoin="bevel">
    <rect height="0" x="0" width="0" y="0"/>
   </g>
   <g transform="matrix(1,0,0,1,5871.21,3329.38)" stroke="none" font-weight="400" fill="#ffffff" fill-opacity="1" font-size="29.1042" font-style="normal" font-family="MS Shell Dlg 2">
    <path vector-effect="non-scaling-stroke" fill-rule="evenodd" d="M1500,0 L1500,2000 L-1500,2000 L-1500,0 L1500,0"/>
   </g>
   <g stroke-width="1" transform="matrix(1,0,0,1,5871.21,3329.38)" stroke="#000000" stroke-opacity="1" font-weight="400" fill="none" stroke-linecap="square" font-size="29.1042" font-style="normal" font-family="MS Shell Dlg 2" stroke-linejoin="bevel">
    <rect height="0" x="0" width="0" y="0"/>
   </g>
   <g transform="matrix(1,0,0,1,5871.21,3329.38)" stroke="none" font-weight="400" fill="#ffffff" fill-opacity="1" font-size="29.1042" font-style="normal" font-family="MS Shell Dlg 2">
    <path vector-effect="non-scaling-stroke" fill-rule="evenodd" d="M-1500,0 L-1500,-2000 L1500,-2000 L1500,0 L-1500,0"/>
   </g>
   <g stroke-width="1" transform="matrix(1,0,0,1,5871.21,3329.38)" stroke="#000000" stroke-opacity="1" font-weight="400" fill="none" stroke-linecap="square" font-size="29.1042" font-style="normal" font-family="MS Shell Dlg 2" stroke-linejoin="bevel">
    <rect height="0" x="0" width="0" y="0"/>
   </g>
   <g transform="matrix(1,0,0,1,5871.21,3329.38)" stroke="none" font-weight="400" fill="#ffffff" fill-opacity="1" font-size="29.1042" font-style="normal" font-family="MS Shell Dlg 2">
    <path vector-effect="non-scaling-stroke" fill-rule="evenodd" d="M500,-1300 C500,-968.629 231.371,-700 -100,-700 C-431.371,-700 -700,-968.629 -700,-1300 C-700,-1631.37 -431.371,-1900 -100,-1900 C231.371,-1900 500,-1631.37 500,-1300 "/>
   </g>
   <g stroke-width="1" transform="matrix(1,0,0,1,5871.21,3329.38)" stroke="#000000" stroke-opacity="1" font-weight="400" fill="none" stroke-linecap="square" font-size="29.1042" font-style="normal" font-family="MS Shell Dlg 2" stroke-linejoin="bevel">
    <rect height="0" x="0" width="0" y="0"/>
   </g>
   <g stroke-width="2.5" transform="matrix(1,0,0,1,5871.21,3329.38)" stroke="#000000" stroke-opacity="1" font-weight="400" fill="none" stroke-linecap="round" font-size="29.1042" font-style="normal" font-family="MS Shell Dlg 2" stroke-linejoin="bevel">
    <path vector-effect="none" fill-rule="evenodd" d="M-1500,-2000 L1500,-2000"/>
   </g>
   <g stroke-width="2.5" transform="matrix(1,0,0,1,5871.21,3329.38)" stroke="#000000" stroke-opacity="1" font-weight="400" fill="none" stroke-linecap="round" font-size="29.1042" font-style="normal" font-family="MS Shell Dlg 2" stroke-linejoin="bevel">
    <path vector-effect="none" fill-rule="evenodd" d="M1500,-2000 L1500,0"/>
   </g>
   <g stroke-width="2.5" transform="matrix(1,0,0,1,5871.21,3329.38)" stroke="#000000" stroke-opacity="1" font-weight="400" fill="none" stroke-linecap="round" font-size="29.1042" font-style="normal" font-family="MS Shell Dlg 2" stroke-linejoin="bevel">
    <path vector-effect="none" fill-rule="evenodd" d="M1500,0 L-1500,0"/>
   </g>
   <g stroke-width="2.5" transform="matrix(1,0,0,1,5871.21,3329.38)" stroke="#000000" stroke-opacity="1" font-weight="400" fill="none" stroke-linecap="round" font-size="29.1042" font-style="normal" font-family="MS Shell Dlg 2" stroke-linejoin="bevel">
    <path vector-effect="none" fill-rule="evenodd" d="M-1500,0 L1500,0"/>
   </g>
   <g stroke-width="2.5" transform="matrix(1,0,0,1,5871.21,3329.38)" stroke="#000000" stroke-opacity="1" font-weight="400" fill="none" stroke-linecap="round" font-size="29.1042" font-style="normal" font-family="MS Shell Dlg 2" stroke-linejoin="bevel">
    <path vector-effect="none" fill-rule="evenodd" d="M1500,0 L1500,2000"/>
   </g>
   <g stroke-width="2.5" transform="matrix(1,0,0,1,5871.21,3329.38)" stroke="#000000" stroke-opacity="1" font-weight="400" fill="none" stroke-linecap="round" font-size="29.1042" font-style="normal" font-family="MS Shell Dlg 2" stroke-linejoin="bevel">
    <path vector-effect="none" fill-rule="evenodd" d="M1500,2000 L-1500,2000"/>
   </g>
   <g stroke-width="2.5" transform="matrix(1,0,0,1,5871.21,3329.38)" stroke="#000000" stroke-opacity="1" font-weight="400" fill="none" stroke-linecap="round" font-size="29.1042" font-style="normal" font-family="MS Shell Dlg 2" stroke-linejoin="bevel">
    <path vector-effect="none" fill-rule="evenodd" d="M-1500,2000 L-1500,0"/>
   </g>
   <g stroke-width="2.5" transform="matrix(1,0,0,1,5871.21,3329.38)" stroke="#000000" stroke-opacity="1" font-weight="400" fill="none" stroke-linecap="round" font-size="29.1042" font-style="normal" font-family="MS Shell Dlg 2" stroke-linejoin="bevel">
    <path vector-effect="none" fill-rule="evenodd" d="M-1500,0 L-1500,-2000"/>
   </g>
   <g stroke-width="2.5" transform="matrix(1,0,0,1,5871.21,3329.38)" stroke="#000000" stroke-opacity="1" font-weight="400" fill="none" stroke-linecap="round" font-size="29.1042" font-style="normal" font-family="MS Shell Dlg 2" stroke-linejoin="bevel">
    <path vector-effect="none" fill-rule="evenodd" d="M500,-1300 C500,-968.629 231.371,-700 -100,-700 C-431.371,-700 -700,-968.629 -700,-1300 C-700,-1631.37 -431.371,-1900 -100,-1900 C231.371,-1900 500,-1631.37 500,-1300 "/>
   </g>
   <g stroke-width="1" transform="matrix(1,0,0,1,5871.21,3329.38)" stroke="#000000" stroke-opacity="1" font-weight="400" fill="none" stroke-linecap="square" font-size="29.1042" font-style="normal" font-family="MS Shell Dlg 2" stroke-linejoin="bevel">
    <rect height="0" x="0" width="0" y="0"/>
   </g>
   <g stroke-width="1" transform="matrix(0,-1,1,0,4205.19,2386.09)" stroke="#000000" stroke-opacity="1" font-weight="400" fill="none" stroke-linecap="square" font-size="29.1042" font-style="normal" font-family="MS Shell Dlg 2" stroke-linejoin="bevel">
    <text stroke="none" x="4" font-weight="400" fill="#000000" fill-opacity="1" xml:space="preserve" font-size="50" y="70" font-style="normal" font-family="osifont">200.0</text>
   </g>
   <g stroke-width="1.3" transform="matrix(1,0,0,1,5871.21,3329.38)" stroke="#000000" stroke-opacity="1" font-weight="400" fill="none" stroke-linecap="round" font-size="29.1042" font-style="normal" font-family="MS Shell Dlg 2" stroke-linejoin="bevel">
    <path vector-effect="none" fill-rule="evenodd" d="M-1585.93,0 L-1585.93,-2000 M-1500,-2000 L-1596.33,-2000 M-1500,0 L-1596.33,0"/>
   </g>
   <g stroke-width="1.3" transform="matrix(1,0,0,1,4285.29,1329.38)" stroke="#000000" stroke-opacity="1" font-weight="400" fill="#000000" fill-opacity="1" stroke-linecap="round" font-size="29.1042" font-style="normal" font-family="MS Shell Dlg 2" stroke-linejoin="bevel">
    <path vector-effect="none" fill-rule="evenodd" d="M0,0 L-8.33333,50 L8.33333,50 L0,0"/>
   </g>
   <g stroke-width="1.3" transform="matrix(1,0,0,1,4285.29,3329.38)" stroke="#000000" stroke-opacity="1" font-weight="400" fill="#000000" fill-opacity="1" stroke-linecap="round" font-size="29.1042" font-style="normal" font-family="MS Shell Dlg 2" stroke-linejoin="bevel">
    <path vector-effect="none" fill-rule="evenodd" d="M0,0 L8.33333,-50 L-8.33333,-50 L0,0"/>
   </g>
   <g stroke-width="1" transform="matrix(1,0,0,1,5871.21,3329.38)" stroke="#000000" stroke-opacity="1" font-weight="400" fill="none" stroke-linecap="square" font-size="29.1042" font-style="normal" font-family="MS Shell Dlg 2" stroke-linejoin="bevel">
    <rect height="0" x="0" width="0" y="0"/>
   </g>
   <g stroke-width="1" transform="matrix(0,-1,1,0,4205.26,4426.88)" stroke="#000000" stroke-opacity="1" font-weight="400" fill="none" stroke-linecap="square" font-size="29.1042" font-style="normal" font-family="MS Shell Dlg 2" stroke-linejoin="bevel">
    <text stroke="none" x="4" font-weight="400" fill="#000000" fill-opacity="1" xml:space="preserve" font-size="50" y="70" font-style="normal" font-family="osifont">200.0</text>
   </g>
   <g stroke-width="1.3" transform="matrix(1,0,0,1,5871.21,3329.38)" stroke="#000000" stroke-opacity="1" font-weight="400" fill="none" stroke-linecap="round" font-size="29.1042" font-style="normal" font-family="MS Shell Dlg 2" stroke-linejoin="bevel">
    <path vector-effect="none" fill-rule="evenodd" d="M-1585.85,2000 L-1585.85,0 M-1500,0 L-1596.25,0 M-1500,2000 L-1596.25,2000"/>
   </g>
   <g stroke-width="1.3" transform="matrix(1,0,0,1,4285.36,3329.38)" stroke="#000000" stroke-opacity="1" font-weight="400" fill="#000000" fill-opacity="1" stroke-linecap="round" font-size="29.1042" font-style="normal" font-family="MS Shell Dlg 2" stroke-linejoin="bevel">
    <path vector-effect="none" fill-rule="evenodd" d="M0,0 L-8.33333,50 L8.33333,50 L0,0"/>
   </g>
   <g stroke-width="1.3" transform="matrix(1,0,0,1,4285.36,5329.38)" stroke="#000000" stroke-opacity="1" font-weight="400" fill="#000000" fill-opacity="1" stroke-linecap="round" font-size="29.1042" font-style="normal" font-family="MS Shell Dlg 2" stroke-linejoin="bevel">
    <path vector-effect="none" fill-rule="evenodd" d="M0,0 L8.33333,-50 L-8.33333,-50 L0,0"/>
   </g>
   <g stroke-width="1" transform="matrix(1,0,0,1,5871.21,3329.38)" stroke="#000000" stroke-opacity="1" font-weight="400" fill="none" stroke-linecap="square" font-size="29.1042" font-style="normal" font-family="MS Shell Dlg 2" stroke-linejoin="bevel">
    <rect height="0" x="0" width="0" y="0"/>
   </g>
   <g stroke-width="1" transform="matrix(1,0,0,1,5826.28,1151.19)" stroke="#000000" stroke-opacity="1" font-weight="400" fill="none" stroke-linecap="square" font-size="29.1042" font-style="normal" font-family="MS Shell Dlg 2" stroke-linejoin="bevel">
    <text stroke="none" x="4" font-weight="400" fill="#000000" fill-opacity="1" xml:space="preserve" font-size="50" y="70" font-style="normal" font-family="osifont">300.0</text>
   </g>
   <g stroke-width="1.3" transform="matrix(1,0,0,1,5871.21,3329.38)" stroke="#000000" stroke-opacity="1" font-weight="400" fill="none" stroke-linecap="round" font-size="29.1042" font-style="normal" font-family="MS Shell Dlg 2" stroke-linejoin="bevel">
    <path vector-effect="none" fill-rule="evenodd" d="M-1500,-2098.09 L1500,-2098.09 M1500,-2000 L1500,-2108.49 M-1500,-2000 L-1500,-2108.49"/>
   </g>
   <g stroke-width="1.3" transform="matrix(1,0,0,1,7371.21,1231.29)" stroke="#000000" stroke-opacity="1" font-weight="400" fill="#000000" fill-opacity="1" stroke-linecap="round" font-size="29.1042" font-style="normal" font-family="MS Shell Dlg 2" stroke-linejoin="bevel">
    <path vector-effect="none" fill-rule="evenodd" d="M0,0 L-50,-8.33333 L-50,8.33333 L0,0"/>
   </g>
   <g stroke-width="1.3" transform="matrix(1,0,0,1,4371.21,1231.29)" stroke="#000000" stroke-opacity="1" font-weight="400" fill="#000000" fill-opacity="1" stroke-linecap="round" font-size="29.1042" font-style="normal" font-family="MS Shell Dlg 2" stroke-linejoin="bevel">
    <path vector-effect="none" fill-rule="evenodd" d="M0,0 L50,8.33333 L50,-8.33333 L0,0"/>
   </g>
   <g stroke-width="1" transform="matrix(1,0,0,1,5871.21,3329.38)" stroke="#000000" stroke-opacity="1" font-weight="400" fill="none" stroke-linecap="square" font-size="29.1042" font-style="normal" font-family="MS Shell Dlg 2" stroke-linejoin="bevel">
    <rect height="0" x="0" width="0" y="0"/>
   </g>
   <g stroke-width="1" transform="matrix(0.845711,-0.533642,0.533642,0.845711,6567.96,1431.33)" stroke="#000000" stroke-opacity="1" font-weight="400" fill="none" stroke-linecap="square" font-size="29.1042" font-style="normal" font-family="MS Shell Dlg 2" stroke-linejoin="bevel">
    <text stroke="none" x="4" font-weight="400" fill="#000000" fill-opacity="1" xml:space="preserve" font-size="50" y="70" font-style="normal" font-family="osifont">⌀120.0</text>
   </g>
   <g stroke-width="1.3" transform="matrix(1,0,0,1,5871.21,3329.38)" stroke="#000000" stroke-opacity="1" font-weight="400" fill="none" stroke-linecap="round" font-size="29.1042" font-style="normal" font-family="MS Shell Dlg 2" stroke-linejoin="bevel">
    <path vector-effect="none" fill-rule="evenodd" d="M-691.997,-926.451 L854.179,-1902.09"/>
   </g>
   <g stroke-width="1.3" transform="matrix(1,0,0,1,6278.64,1709.19)" stroke="#000000" stroke-opacity="1" font-weight="400" fill="#000000" fill-opacity="1" stroke-linecap="round" font-size="29.1042" font-style="normal" font-family="MS Shell Dlg 2" stroke-linejoin="bevel">
    <path vector-effect="none" fill-rule="evenodd" d="M0,0 L46.7325,-19.6345 L37.8385,-33.7297 L0,0"/>
   </g>
   <g stroke-width="1.3" transform="matrix(1,0,0,1,5263.79,2349.56)" stroke="#000000" stroke-opacity="1" font-weight="400" fill="#000000" fill-opacity="1" stroke-linecap="round" font-size="29.1042" font-style="normal" font-family="MS Shell Dlg 2" stroke-linejoin="bevel">
    <path vector-effect="none" fill-rule="evenodd" d="M0,0 L-46.7325,19.6345 L-37.8385,33.7297 L0,0"/>
   </g>
   <g stroke-width="1" transform="matrix(1,0,0,1,5871.21,3329.38)" stroke="#000000" stroke-opacity="1" font-weight="400" fill="none" stroke-linecap="square" font-size="29.1042" font-style="normal" font-family="MS Shell Dlg 2" stroke-linejoin="bevel">
    <rect height="0" x="0" width="0" y="0"/>
   </g>
   <g stroke-width="1" transform="matrix(0,-1,1,0,6648.88,2744.15)" stroke="#000000" stroke-opacity="1" font-weight="400" fill="none" stroke-linecap="square" font-size="29.1042" font-style="normal" font-family="MS Shell Dlg 2" stroke-linejoin="bevel">
    <text stroke="none" x="4" font-weight="400" fill="#000000" fill-opacity="1" xml:space="preserve" font-size="50" y="70" font-style="normal" font-family="osifont">130.0</text>
   </g>
   <g stroke-width="1.3" transform="matrix(1,0,0,1,5871.21,3329.38)" stroke="#000000" stroke-opacity="1" font-weight="400" fill="none" stroke-linecap="round" font-size="29.1042" font-style="normal" font-family="MS Shell Dlg 2" stroke-linejoin="bevel">
    <path vector-effect="none" fill-rule="evenodd" d="M857.768,-1300 L857.768,1.42109e-13 M-1500,1.57772e-29 L868.168,1.42735e-13 M-100,-1300 L868.168,-1300"/>
   </g>
   <g stroke-width="1.3" transform="matrix(1,0,0,1,6728.98,3329.38)" stroke="#000000" stroke-opacity="1" font-weight="400" fill="#000000" fill-opacity="1" stroke-linecap="round" font-size="29.1042" font-style="normal" font-family="MS Shell Dlg 2" stroke-linejoin="bevel">
    <path vector-effect="none" fill-rule="evenodd" d="M0,0 L8.33333,-50 L-8.33333,-50 L0,0"/>
   </g>
   <g stroke-width="1.3" transform="matrix(1,0,0,1,6728.98,2029.38)" stroke="#000000" stroke-opacity="1" font-weight="400" fill="#000000" fill-opacity="1" stroke-linecap="round" font-size="29.1042" font-style="normal" font-family="MS Shell Dlg 2" stroke-linejoin="bevel">
    <path vector-effect="none" fill-rule="evenodd" d="M0,0 L-8.33333,50 L8.33333,50 L0,0"/>
   </g>
   <g stroke-width="1" transform="matrix(1,0,0,1,5871.21,3329.38)" stroke="#000000" stroke-opacity="1" font-weight="400" fill="none" stroke-linecap="square" font-size="29.1042" font-style="normal" font-family="MS Shell Dlg 2" stroke-linejoin="bevel">
    <rect height="0" x="0" width="0" y="0"/>
   </g>
   <g stroke-width="1" transform="matrix(1,0,0,1,5020.46,2713.71)" stroke="#000000" stroke-opacity="1" font-weight="400" fill="none" stroke-linecap="square" font-size="29.1042" font-style="normal" font-family="MS Shell Dlg 2" stroke-linejoin="bevel">
    <text stroke="none" x="4" font-weight="400" fill="#000000" fill-opacity="1" xml:space="preserve" font-size="50" y="70" font-style="normal" font-family="osifont">140.0</text>
   </g>
   <g stroke-width="1.3" transform="matrix(1,0,0,1,5871.21,3329.38)" stroke="#000000" stroke-opacity="1" font-weight="400" fill="none" stroke-linecap="round" font-size="29.1042" font-style="normal" font-family="MS Shell Dlg 2" stroke-linejoin="bevel">
    <path vector-effect="none" fill-rule="evenodd" d="M-100,-535.566 L-1500,-535.566 M-1500,0 L-1500,-545.966 M-100,-1300 L-100,-525.166"/>
   </g>
   <g stroke-width="1.3" transform="matrix(1,0,0,1,4371.21,2793.81)" stroke="#000000" stroke-opacity="1" font-weight="400" fill="#000000" fill-opacity="1" stroke-linecap="round" font-size="29.1042" font-style="normal" font-family="MS Shell Dlg 2" stroke-linejoin="bevel">
    <path vector-effect="none" fill-rule="evenodd" d="M0,0 L50,8.33333 L50,-8.33333 L0,0"/>
   </g>
   <g stroke-width="1.3" transform="matrix(1,0,0,1,5771.21,2793.81)" stroke="#000000" stroke-opacity="1" font-weight="400" fill="#000000" fill-opacity="1" stroke-linecap="round" font-size="29.1042" font-style="normal" font-family="MS Shell Dlg 2" stroke-linejoin="bevel">
    <path vector-effect="none" fill-rule="evenodd" d="M0,0 L-50,-8.33333 L-50,8.33333 L0,0"/>
   </g>
  </g>
 </g>
</svg>
